<svg xmlns="http://www.w3.org/2000/svg" viewBox="0 0 87.48 73.3"><defs><style>.cls-1{fill:#ffbbf2;stroke:#000;stroke-miterlimit:10;}.cls-2{fill:#f3ff00;}</style></defs><g id="Capa_2" data-name="Capa 2"><g id="Capa_1-2" data-name="Capa 1"><path class="cls-1" d="M35.73,40c-4.24.13-31.66,22.15-35-2.62C-2.54,13.06,28.84,26,33.05,24.88Z"/><path class="cls-1" d="M55.28,36.81c.87,4.15,27.31,27.32,3.5,34.9-23.42,7.46-16.09-25.7-18-29.64Z"/><path class="cls-1" d="M56.35,25.93c3.74,2,38.49-3.37,29,19.76-9.33,22.72-30-4.2-34.25-5.31Z"/><path class="cls-1" d="M48.71,18.11c3.94-1.58,22.16-31.64,33.77-9.51C93.89,30.36,60,28.91,56.4,31.43Z"/><circle class="cls-2" cx="44.15" cy="30.21" r="13"/><path d="M44.15,17.71a12.5,12.5,0,1,1-12.5,12.5,12.52,12.52,0,0,1,12.5-12.5m0-1a13.5,13.5,0,1,0,13.5,13.5,13.5,13.5,0,0,0-13.5-13.5Z"/></g></g></svg>