<svg xmlns="http://www.w3.org/2000/svg" viewBox="0 0 87.48 87.61"><defs><style>.cls-1{fill:#ffbbf2;stroke:#000;stroke-miterlimit:10;}.cls-2{fill:#f3ff00;}</style></defs><g id="Capa_2" data-name="Capa 2"><g id="Capa_1-2" data-name="Capa 1"><path class="cls-1" d="M36,34.52c.6-4.19-16.33-35,8.65-34,24.55,1,6.32,29.66,6.73,34Z"/><path class="cls-1" d="M31.22,44.38c-2.83-3.16-37.32-10-20.49-28.48C27.28-2.27,37.51,30.11,41.1,32.6Z"/><path class="cls-1" d="M35.73,54.34c-4.24.14-31.66,22.15-35-2.62-3.28-24.35,28.1-11.38,32.31-12.53Z"/><path class="cls-1" d="M46.25,57.29c-2.62,3.33-3.37,38.48-24.49,25.12C1,69.26,31.11,53.56,32.93,49.6Z"/><path class="cls-1" d="M55.28,51.12c.87,4.15,27.31,27.32,3.5,34.9-23.42,7.46-16.09-25.7-18-29.64Z"/><path class="cls-1" d="M56.35,40.24c3.74,2,38.49-3.37,29,19.76-9.33,22.72-30-4.2-34.25-5.31Z"/><path class="cls-1" d="M48.71,32.42C52.65,30.84,70.87.78,82.48,22.91,93.89,44.68,60,43.22,56.4,45.74Z"/><circle class="cls-2" cx="44.15" cy="44.52" r="13"/><path d="M44.15,32a12.5,12.5,0,1,1-12.5,12.5A12.52,12.52,0,0,1,44.15,32m0-1a13.5,13.5,0,1,0,13.5,13.5A13.5,13.5,0,0,0,44.15,31Z"/></g></g></svg>