<svg xmlns="http://www.w3.org/2000/svg" viewBox="0 0 87.48 77.72"><defs><style>.cls-1{fill:#ffbbf2;stroke:#000;stroke-miterlimit:10;}.cls-2{fill:#f3ff00;}</style></defs><g id="Capa_2" data-name="Capa 2"><g id="Capa_1-2" data-name="Capa 1"><path class="cls-1" d="M31.22,34.49C28.39,31.33-6.1,24.48,10.73,6,27.28-12.16,37.51,20.22,41.1,22.71Z"/><path class="cls-1" d="M35.73,44.45c-4.24.13-31.66,22.15-35-2.62C-2.54,17.48,28.84,30.45,33.05,29.3Z"/><path class="cls-1" d="M55.28,41.22c.87,4.16,27.31,27.33,3.5,34.91-23.42,7.46-16.09-25.7-18-29.64Z"/><path class="cls-1" d="M56.35,30.35c3.74,2,38.49-3.37,29,19.75-9.33,22.73-30-4.19-34.25-5.3Z"/><path class="cls-1" d="M48.71,22.53C52.65,21,70.87-9.11,82.48,13,93.89,34.78,60,33.33,56.4,35.85Z"/><circle class="cls-2" cx="44.15" cy="34.63" r="13"/><path d="M44.15,22.13a12.5,12.5,0,1,1-12.5,12.5,12.52,12.52,0,0,1,12.5-12.5m0-1a13.5,13.5,0,1,0,13.5,13.5,13.5,13.5,0,0,0-13.5-13.5Z"/></g></g></svg>