<svg xmlns="http://www.w3.org/2000/svg" viewBox="0 0 69.19 56.59"><defs><style>.cls-1{fill:#ffbbf2;stroke:#000;stroke-miterlimit:10;}.cls-2{fill:#f3ff00;}</style></defs><g id="Capa_2" data-name="Capa 2"><g id="Capa_1-2" data-name="Capa 1"><path class="cls-1" d="M35.73,23.32c-4.24.13-31.66,22.15-35-2.62C-2.54-3.65,28.84,9.32,33.05,8.17Z"/><path class="cls-1" d="M55.28,20.09c.87,4.15,27.31,27.32,3.5,34.91-23.42,7.46-16.09-25.7-18-29.65Z"/><circle class="cls-2" cx="44.15" cy="13.5" r="13"/><path d="M44.15,1a12.5,12.5,0,1,1-12.5,12.5A12.52,12.52,0,0,1,44.15,1m0-1a13.5,13.5,0,1,0,13.5,13.5A13.49,13.49,0,0,0,44.15,0Z"/></g></g></svg>